<svg  width="16" height="16" viewBox="0 0 16 16" fill="none"
     xmlns="http://www.w3.org/2000/svg">
    <path d="M14.4531 11.8329C14.3041 11.8701 14.1738 11.8888 14.0248 11.9074C13.9876 12.0933 13.8945 12.2793 13.7641 12.4281C13.6524 12.5397 13.5407 12.6141 13.4103 12.6699C13.3731 12.8745 13.3545 13.0605 13.3172 13.2651C13.2986 13.3953 13.3545 13.5255 13.4662 13.5813C13.5779 13.6371 13.7269 13.6185 13.82 13.5255C14.1924 13.1535 14.5089 12.7257 14.7883 12.2793C14.8441 12.1863 14.8441 12.0561 14.7883 11.9631C14.6765 11.8516 14.5648 11.7957 14.4531 11.8329Z"
          fill="#025DFF"/>
    <path d="M1.13867 6.06706C1.39936 5.95546 1.71591 5.95546 1.9766 6.06706C2.75867 5.23007 3.70833 4.44888 4.82557 3.83509C6.2035 3.09111 7.7304 2.70051 9.36901 2.62611C9.48074 2.62611 9.57382 2.55172 9.62968 2.45872C9.68555 2.36573 9.66693 2.23552 9.59245 2.16112C9.44349 1.97513 9.31315 1.78914 9.18281 1.62174C8.73591 1.06375 8.289 0.561556 7.86072 0.133764C7.76762 0.0407653 7.63729 -0.0150361 7.50695 0.00356363C4.41592 0.18956 1.7904 2.12393 0.635921 4.82089C0.580059 4.95108 0.580055 5.09988 0.654537 5.21148C0.803502 5.50907 0.971084 5.78806 1.13867 6.06706Z"
          fill="#025DFF"/>
    <path d="M6.18558 10.6612C6.2042 10.6426 6.22283 10.624 6.24145 10.6054C6.4649 10.3636 6.78145 10.2706 7.07938 10.3078C8.178 8.78263 9.10902 7.09005 9.81661 5.23008C10.0028 4.76509 10.1518 4.3001 10.3008 3.85371C10.2263 3.81651 10.1332 3.7607 10.0773 3.68631C9.92834 3.53751 9.83523 3.37011 9.79799 3.18411C8.10351 3.20271 6.53938 3.57471 5.12421 4.3373C4.06284 4.89529 3.16905 5.63927 2.42422 6.43906C2.68491 6.82965 2.66629 7.35045 2.33112 7.70384C3.39249 9.00582 4.69593 9.9916 6.18558 10.6612Z"
          fill="#025DFF"/>
    <path d="M10.8779 4.4675C10.7289 4.4861 10.6172 4.5791 10.5613 4.70929C10.4868 4.95109 10.3937 5.17428 10.3006 5.41608C9.59305 7.25745 8.68062 8.96863 7.582 10.4938C7.61924 10.5124 7.63786 10.5496 7.6751 10.5682C7.87993 10.7542 7.97305 11.0146 7.99167 11.2564C9.3696 11.5912 10.7475 11.6656 12.0137 11.5912C12.0323 11.3866 12.1254 11.1634 12.293 10.996C12.4792 10.81 12.7213 10.6984 12.9634 10.6798C12.9075 8.41064 12.1627 6.34606 11.2317 4.61629C11.1386 4.5233 11.0082 4.4489 10.8779 4.4675Z"
          fill="#025DFF"/>
    <path d="M12.0885 12.1492C10.8036 12.2236 9.35122 12.1678 7.86157 11.7958C7.82433 11.8702 7.76849 11.9446 7.694 12.019C7.32159 12.4096 6.72572 12.4282 6.31607 12.0934C6.20435 12.2236 6.11123 12.3352 5.99951 12.4468C5.40364 13.0978 4.77056 13.7115 4.08159 14.2881C3.96987 14.3811 3.914 14.5299 3.914 14.6787C3.93262 14.8275 4.02573 14.9577 4.15608 15.0321C5.32918 15.6645 6.68847 16.0179 8.12226 15.9993C9.61192 15.9807 11.0085 15.5343 12.2002 14.8089C12.2933 14.7531 12.3678 14.6601 12.3864 14.5671C12.5912 13.9533 12.7216 13.3396 12.8147 12.7258C12.6285 12.6886 12.4423 12.5956 12.2933 12.4654C12.2002 12.3538 12.1257 12.2608 12.0885 12.1492Z"
          fill="#025DFF"/>
    <path d="M5.60802 12.0933C5.73836 11.9445 5.86872 11.7957 6.01769 11.6469C5.96183 11.4796 5.94319 11.3122 5.98043 11.1634C4.78871 10.6426 3.72734 9.91718 2.77769 8.9872C2.46114 8.671 2.1632 8.35481 1.86527 8.00141C1.86527 8.00141 1.86528 8.00142 1.84666 7.98282C1.64183 8.03862 1.39976 8.03862 1.19493 7.94562C1.17631 7.96422 1.15768 7.98281 1.13906 8.02001C0.803892 8.5222 0.505975 9.0244 0.245286 9.48939C0.189424 9.58239 0.17079 9.69399 0.208031 9.80559C0.599065 11.5354 1.56735 13.0419 2.87079 14.1393C3.03838 14.2695 3.28044 14.2881 3.44803 14.1393C4.21148 13.5069 4.93768 12.8187 5.60802 12.0933Z"
          fill="#025DFF"/>
    <path d="M11.7532 2.77493C12.3118 2.84933 12.889 2.97952 13.4849 3.12832C13.6339 3.16551 13.8015 3.10972 13.8759 2.96093C13.9504 2.83073 13.9318 2.64472 13.8387 2.53312C13.2987 1.95653 12.6842 1.47295 12.0139 1.06376C11.9208 1.00796 11.7904 1.00795 11.6787 1.04515C11.567 1.10095 11.4925 1.19395 11.4739 1.30555C11.418 1.56594 11.3621 1.80774 11.3063 2.08674C11.3621 2.12394 11.3994 2.16113 11.4552 2.19833C11.6228 2.36573 11.7346 2.57033 11.7532 2.77493Z"
          fill="#025DFF"/>
    <path d="M0.264222 8.3548C0.413187 8.11301 0.580768 7.87121 0.748354 7.61082C0.487665 7.25742 0.469049 6.77383 0.729738 6.42043C0.711118 6.40183 0.692483 6.38323 0.692483 6.34603C0.636621 6.23443 0.506281 6.19724 0.394557 6.21584C0.282833 6.23444 0.189744 6.32744 0.152503 6.45763C0.0407786 6.99703 -0.0150924 7.57361 0.00352822 8.1502C0.00352822 8.206 0.00352822 8.2432 0.00352822 8.299C0.00352822 8.3548 0.0593856 8.4106 0.115248 8.4292C0.152489 8.4292 0.226981 8.4106 0.264222 8.3548Z"
          fill="#025DFF"/>
    <path d="M15.9987 7.85263C15.98 6.56925 15.6635 5.37887 15.1049 4.31869C15.049 4.20709 14.9559 4.13269 14.8442 4.09549C13.7456 3.7235 12.7028 3.4631 11.6973 3.3143C11.6414 3.4445 11.5856 3.55609 11.4738 3.64909C11.418 3.70489 11.3808 3.74209 11.3249 3.77929C12.4607 5.69506 13.4104 8.07582 13.4849 10.7356C13.4849 10.7728 13.4849 10.81 13.4849 10.8472C13.5594 10.8844 13.6338 10.9402 13.7083 11.0146C13.82 11.1262 13.8945 11.2564 13.9504 11.3866C14.3787 11.3122 14.7883 11.2192 15.1607 11.1262C15.3097 11.089 15.4214 10.9774 15.4773 10.8472C15.8311 9.91719 16.0173 8.91281 15.9987 7.85263Z"
          fill="#025DFF"/>
    <path d="M9.59301 1.30553C9.79784 1.54733 10.0027 1.80773 10.2075 2.08672C10.3937 1.97512 10.5985 1.91932 10.8034 1.91932C10.8778 1.58452 10.9523 1.24973 11.0082 0.933538C11.0454 0.747541 10.9337 0.542945 10.7475 0.468546C10.2633 0.282549 9.76059 0.152356 9.25783 0.0779571C9.12749 0.0593574 9.01577 0.115154 8.95991 0.226752C8.90404 0.33835 8.92268 0.468546 8.99716 0.561544C9.18337 0.80334 9.38818 1.04514 9.59301 1.30553Z"
          fill="#025DFF"/>
</svg>
